{"glyphs":{"0":{"ha":963,"x_min":0,"x_max":0,"o":"m 61 567 l 354 567 l 354 840 l 61 840 z m 61 567 l 61 274 l 354 274 l 354 567 z m 354 0 l 628 0 l 628 274 l 354 274 z m 901 567 l 901 840 l 628 840 l 628 1114 l 354 1114 l 354 840 l 628 840 l 628 567 l 628 567 l 628 274 l 901 274 l 901 567 z "},"1":{"ha":735,"x_min":0,"x_max":0,"o":"m 342 1113 l 342 840 l 68 840 l 68 567 l 342 567 l 342 275 l 633 275 l 633 1113 z m 342 1 l 633 1 l 633 275 l 342 275 z "},"2":{"ha":1047,"x_min":0,"x_max":0,"o":"m 929 836 l 658 833 l 658 1108 l 658 1108 l 113 1108 l 113 836 l 658 836 l 658 836 l 658 836 l 658 564 l 929 564 l 929 836 z m 385 564 l 113 564 l 113 272 l 385 272 z m 658 272 l 113 272 l 113 0 l 658 0 l 658 0 l 929 0 l 929 272 l 658 272 z "},"3":{"ha":983,"x_min":0,"x_max":0,"o":"m 640 1114 l 92 1114 l 92 840 l 640 840 z m 365 840 l 365 567 l 640 567 l 640 274 l 913 274 l 913 840 z m 365 0 l 640 0 l 640 274 l 365 274 z m 92 274 l 365 274 l 365 567 l 92 567 z "},"4":{"ha":990,"x_min":0,"x_max":0,"o":"m 365 565 l 365 839 l 640 839 l 640 1114 l 365 1114 l 365 839 l 92 839 l 92 272 l 640 272 l 640 -1 l 913 -1 l 913 565 z "},"5":{"ha":1047,"x_min":0,"x_max":0,"o":"m 107 1110 l 107 836 l 944 836 l 944 1110 z m 400 836 l 107 836 l 107 564 l 400 564 z m 672 272 l 107 272 l 107 -1 l 672 -1 l 672 272 l 944 272 l 944 564 l 672 564 z "},"6":{"ha":1013,"x_min":0,"x_max":0,"o":"m 639 1113 l 639 1113 l 367 1113 l 367 840 l 639 840 l 639 840 l 914 840 l 914 1113 z m 367 840 l 74 840 l 74 272 l 367 272 l 367 0 l 639 0 l 639 272 l 367 272 z m 639 272 l 914 272 l 914 565 l 639 565 z "},"7":{"ha":999,"x_min":0,"x_max":0,"o":"m 74 1114 l 74 840 l 914 840 l 914 1114 z m 640 567 l 914 567 l 914 840 l 640 840 z m 347 0 l 640 0 l 640 567 l 347 567 z "},"8":{"ha":999,"x_min":0,"x_max":0,"o":"m 624 1114 l 347 1114 l 347 842 l 624 842 z m 75 842 l 75 272 l 347 272 l 347 568 l 624 568 l 624 272 l 347 272 l 347 0 l 624 0 l 624 272 l 917 272 l 917 842 z "},"9":{"ha":949,"x_min":0,"x_max":0,"o":"m 61 275 l 61 1 l 335 1 l 608 1 l 608 275 l 335 275 z m 608 275 l 881 275 l 881 568 l 608 568 z m 608 842 l 608 568 l 881 568 l 881 842 z m 608 1115 l 335 1115 l 335 842 l 608 842 z m 335 842 l 61 842 l 61 568 l 335 568 z "}," ":{"ha":417,"x_min":0,"x_max":0,"o":""},"!":{"ha":653,"x_min":0,"x_max":0,"o":"m 176 1 l 468 1 l 468 293 l 176 293 z m 176 1383 l 176 1111 l 468 1111 l 468 1383 z m 176 565 l 468 565 l 468 839 l 176 839 z m 176 839 l 468 839 l 468 1111 l 176 1111 z "},"\"":{"ha":417,"x_min":0,"x_max":0,"o":"m 261 1113 l 0 1113 l 0 833 l 261 833 z "},"%":{"ha":1144,"x_min":0,"x_max":0,"o":"m 260 832 l -1 832 l -1 1111 l 260 1111 z m 1097 0 l 836 0 l 836 279 l 1097 279 z m 256 281 l 553 281 l 553 560 l 256 560 z m 553 560 l 831 560 l 831 839 l 553 839 z m 831 1115 l 1110 1115 l 1110 1394 l 831 1394 z m 553 839 l 831 839 l 831 1115 l 553 1115 z m -24 -294 l 256 -294 l 256 1 l -24 1 z m 256 1 l 553 1 l 553 281 l 256 281 z "},"(":{"ha":694,"x_min":0,"x_max":0,"o":"m -3 836 l 271 836 l 271 1108 l -3 1108 z m -3 292 l 271 292 l 271 836 l -3 836 z m -3 1 l 271 1 l 271 292 l -3 292 z m 561 1381 l 271 1381 l 271 1108 l 561 1108 z m 271 1 l 271 -272 l 561 -272 l 561 1 z "},")":{"ha":624,"x_min":0,"x_max":0,"o":"m 567 274 l 293 274 l 293 -1 l 567 -1 z m 567 821 l 293 821 l 293 274 l 567 274 z m 567 1113 l 293 1113 l 293 821 l 567 821 z m 1 -274 l 293 -274 l 293 -1 l 1 -1 z m 293 1113 l 293 1386 l 1 1386 l 1 1113 z "},"*":{"ha":1040,"x_min":0,"x_max":0,"o":"m 0 558 l 276 558 l 276 835 l 0 835 z m 578 1 l 854 1 l 854 278 l 578 278 z m 0 1 l 276 1 l 276 278 l 0 278 z m 276 278 l 578 278 l 578 558 l 276 558 z m 578 558 l 854 558 l 854 835 l 578 835 z "},"+":{"ha":971,"x_min":0,"x_max":0,"o":"m 281 279 l 558 279 l 558 557 l 281 557 z m 1 279 l 281 279 l 281 557 l 1 557 z m 558 279 l 838 279 l 838 557 l 558 557 z m 281 0 l 558 0 l 558 279 l 281 279 z m 281 557 l 558 557 l 558 836 l 281 836 z "},",":{"ha":674,"x_min":0,"x_max":0,"o":"m 307 278 l 307 0 l 585 0 l 585 278 z m 50 -257 l 307 -257 l 307 0 l 50 0 z "},"-":{"ha":767,"x_min":0,"x_max":0,"o":"m 94 278 l 376 278 l 376 560 l 94 560 z m 376 278 l 660 278 l 660 560 l 376 560 z "},".":{"ha":372,"x_min":0,"x_max":0,"o":"m 332 279 l 71 279 l 71 0 l 332 0 z "},"/":{"ha":1157,"x_min":0,"x_max":0,"o":"m 283 256 l 588 256 l 588 542 l 283 542 z m 588 542 l 874 542 l 874 826 l 588 826 z m 874 1110 l 1158 1110 l 1158 1396 l 874 1396 z m 588 826 l 874 826 l 874 1110 l 588 1110 z m -1 -333 l 283 -333 l 283 -29 l -1 -29 z m 283 -29 l 588 -29 l 588 256 l 283 256 z "},":":{"ha":419,"x_min":0,"x_max":0,"o":"m 356 771 l 74 771 l 74 469 l 356 469 z m 354 301 l 72 301 l 72 0 l 354 0 z "},";":{"ha":701,"x_min":0,"x_max":0,"o":"m 649 772 l 357 772 l 357 463 l 649 463 z m 67 1 l 347 1 l 347 -279 l 67 -279 z m 649 303 l 649 1 l 347 1 l 347 303 z "},"<":{"ha":694,"x_min":0,"x_max":0,"o":"m 0 272 l 271 272 l 271 563 l 0 563 z m 271 563 l 543 563 l 543 835 l 271 835 z m 271 1 l 543 1 l 543 272 l 271 272 z "},"=":{"ha":1053,"x_min":0,"x_max":0,"o":"m 7 558 l 286 558 l 286 838 l 7 838 z m 286 558 l 565 558 l 565 838 l 286 838 z m 565 558 l 865 558 l 865 838 l 565 838 z m 7 0 l 286 0 l 286 279 l 7 279 z m 286 0 l 565 0 l 565 279 l 286 279 z m 565 0 l 865 0 l 865 279 l 565 279 z "},">":{"ha":694,"x_min":0,"x_max":0,"o":"m 546 563 l 274 563 l 274 271 l 546 271 z m 274 271 l 1 271 l 1 -1 l 274 -1 z m 274 835 l 1 835 l 1 563 l 274 563 z "},"?":{"ha":929,"x_min":0,"x_max":0,"o":"m 350 1 l 622 1 l 622 294 l 350 294 z m 622 1111 l 622 838 l 894 838 l 894 1111 z m 350 564 l 622 564 l 622 838 l 350 838 z m 350 1382 l 78 1382 l 78 1111 l 350 1111 l 350 1111 l 622 1111 l 622 1382 l 350 1382 z "},"A":{"ha":983,"x_min":0,"x_max":0,"o":"m 629 278 l 629 556 l 351 556 l 351 278 z m 908 -1 l 908 278 l 629 278 l 629 -1 z m 908 278 l 908 556 l 629 556 l 629 278 z m 908 556 l 908 835 l 629 835 l 629 556 z m 629 835 l 629 1114 l 351 1114 l 351 835 z m 351 -1 l 351 278 l 72 278 l 72 -1 z m 351 278 l 351 556 l 72 556 l 72 278 z m 351 556 l 351 835 l 72 835 l 72 556 z "},"B":{"ha":964,"x_min":0,"x_max":0,"o":"m 614 1 l 614 279 l 338 279 l 338 1 z m 892 279 l 892 556 l 614 556 l 614 279 z m 614 833 l 614 1111 l 338 1111 l 338 833 z m 338 833 l 338 1111 l 60 1111 l 60 833 z m 338 556 l 338 833 l 60 833 l 60 556 z m 614 556 l 614 833 l 338 833 l 338 556 z m 338 279 l 338 556 l 60 556 l 60 279 z m 338 1 l 338 279 l 60 279 l 60 1 z "},"C":{"ha":964,"x_min":0,"x_max":0,"o":"m 617 835 l 617 1113 l 339 1113 l 339 835 z m 896 835 l 896 1113 l 617 1113 l 617 835 z m 896 0 l 896 278 l 617 278 l 617 0 z m 617 0 l 617 278 l 339 278 l 339 0 z m 339 278 l 339 556 l 61 556 l 61 278 z m 339 556 l 339 835 l 61 835 l 61 556 z "},"D":{"ha":986,"x_min":0,"x_max":0,"o":"m 628 835 l 628 1113 l 350 1113 l 350 835 z m 907 556 l 907 835 l 628 835 l 628 556 z m 907 278 l 907 556 l 628 556 l 628 278 z m 628 0 l 628 278 l 350 278 l 350 0 z m 350 278 l 350 556 l 72 556 l 72 278 z m 350 835 l 350 1113 l 72 1113 l 72 835 z m 350 556 l 350 835 l 72 835 l 72 556 z m 350 0 l 350 278 l 72 278 l 72 0 z "},"E":{"ha":993,"x_min":0,"x_max":0,"o":"m 917 0 l 917 278 l 638 278 l 638 0 z m 638 0 l 638 278 l 360 278 l 360 0 z m 360 0 l 360 278 l 82 278 l 82 0 z m 360 278 l 360 556 l 82 556 l 82 278 z m 360 556 l 360 835 l 82 835 l 82 556 z m 638 556 l 638 835 l 360 835 l 360 556 z m 917 835 l 917 1113 l 638 1113 l 638 835 z m 638 835 l 638 1113 l 360 1113 l 360 835 z m 360 835 l 360 1113 l 82 1113 l 82 835 z "},"F":{"ha":918,"x_min":0,"x_max":0,"o":"m 888 836 l 888 1114 l 608 1114 l 608 836 z m 608 836 l 608 1114 l 331 1114 l 331 836 z m 608 279 l 608 557 l 331 557 l 331 279 z m 331 1 l 331 279 l 53 279 l 53 1 z m 331 279 l 331 557 l 53 557 l 53 279 z m 331 557 l 331 836 l 53 836 l 53 557 z m 331 836 l 331 1114 l 53 1114 l 53 836 z "},"G":{"ha":983,"x_min":0,"x_max":0,"o":"m 913 278 l 913 556 l 633 556 l 633 278 z m 913 0 l 913 278 l 633 278 l 633 0 z m 633 0 l 633 278 l 356 278 l 356 0 z m 356 0 l 356 278 l 78 278 l 78 0 z m 356 278 l 356 556 l 78 556 l 78 278 z m 356 556 l 356 835 l 78 835 l 78 556 z m 633 835 l 633 1113 l 356 1113 l 356 835 z m 913 835 l 913 1113 l 633 1113 l 633 835 z "},"H":{"ha":956,"x_min":0,"x_max":0,"o":"m 333 1 l 333 279 l 56 279 l 56 1 z m 333 279 l 333 557 l 56 557 l 56 279 z m 333 557 l 333 836 l 56 836 l 56 557 z m 611 279 l 611 557 l 333 557 l 333 279 z m 890 1 l 890 279 l 611 279 l 611 1 z m 890 279 l 890 557 l 611 557 l 611 279 z m 890 279 l 890 557 l 611 557 l 611 279 z m 890 557 l 890 836 l 611 836 l 611 557 z m 890 836 l 890 1114 l 611 1114 l 611 836 z m 333 836 l 333 1114 l 56 1114 l 56 836 z "},"I":{"ha":507,"x_min":0,"x_max":0,"o":"m 382 0 l 382 278 l 104 278 l 104 0 z m 382 278 l 382 556 l 104 556 l 104 278 z m 382 556 l 382 835 l 104 835 l 104 556 z m 382 835 l 382 1113 l 104 1113 l 104 835 z "},"J":{"ha":964,"x_min":0,"x_max":0,"o":"m 340 278 l 340 556 l 63 556 l 63 278 z m 618 0 l 618 278 l 340 278 l 340 0 z m 897 278 l 897 556 l 618 556 l 618 278 z m 897 556 l 897 835 l 618 835 l 618 556 z m 897 835 l 897 1113 l 618 1113 l 618 835 z "},"K":{"ha":1018,"x_min":0,"x_max":0,"o":"m 911 1 l 911 279 l 633 279 l 633 1 z m 911 279 l 911 558 l 633 558 l 633 279 z m 911 836 l 911 1114 l 633 1114 l 633 836 z m 633 558 l 633 836 l 354 836 l 354 558 z m 354 1 l 354 279 l 76 279 l 76 1 z m 354 558 l 354 836 l 76 836 l 76 558 z m 354 279 l 354 558 l 76 558 l 76 279 z m 354 836 l 354 1114 l 76 1114 l 76 836 z "},"L":{"ha":904,"x_min":0,"x_max":0,"o":"m 878 -1 l 878 278 l 599 278 l 599 -1 z m 599 -1 l 599 278 l 321 278 l 321 -1 z m 599 -1 l 599 278 l 321 278 l 321 -1 z m 321 -1 l 321 278 l 42 278 l 42 -1 z m 321 556 l 321 835 l 42 835 l 42 556 z m 321 278 l 321 556 l 42 556 l 42 278 z m 321 835 l 321 1114 l 42 1114 l 42 835 z "},"M":{"ha":1569,"x_min":0,"x_max":0,"o":"m 361 0 l 361 278 l 83 278 l 83 0 z m 361 556 l 361 833 l 83 833 l 83 556 z m 361 278 l 361 556 l 83 556 l 83 278 z m 1472 0 l 1472 278 l 1194 278 l 1194 0 z m 1472 278 l 1472 556 l 1194 556 l 1194 278 z m 1472 556 l 1472 833 l 1194 833 l 1194 556 z m 917 556 l 917 833 l 639 833 l 639 556 z m 1194 833 l 1194 1111 l 917 1111 l 917 833 z m 1472 833 l 1472 1111 l 1194 1111 l 1194 833 z m 361 833 l 361 1111 l 83 1111 l 83 833 z m 639 833 l 639 1111 l 361 1111 l 361 833 z "},"N":{"ha":1321,"x_min":0,"x_max":0,"o":"m 1203 0 l 1203 278 l 925 278 l 925 0 z m 925 278 l 925 556 l 646 556 l 646 278 z m 1203 278 l 1203 556 l 925 556 l 925 278 z m 1203 556 l 1203 835 l 925 835 l 925 556 z m 1203 835 l 1203 1113 l 925 1113 l 925 835 z m 368 0 l 368 278 l 90 278 l 90 0 z m 368 278 l 368 556 l 90 556 l 90 278 z m 646 556 l 646 835 l 368 835 l 368 556 z m 368 556 l 368 835 l 90 835 l 90 556 z m 368 835 l 368 1113 l 90 1113 l 90 835 z "},"O":{"ha":1246,"x_min":0,"x_max":0,"o":"m 906 -1 l 906 276 l 626 276 l 626 -1 z m 906 833 l 906 1111 l 626 1111 l 626 833 z m 1183 276 l 1183 556 l 906 556 l 906 276 z m 1183 556 l 1183 833 l 906 833 l 906 556 z m 626 833 l 626 1111 l 347 1111 l 347 833 z m 626 -1 l 626 276 l 347 276 l 347 -1 z m 347 276 l 347 556 l 69 556 l 69 276 z m 347 556 l 347 833 l 69 833 l 69 556 z "},"P":{"ha":936,"x_min":0,"x_max":0,"o":"m 618 276 l 618 554 l 340 554 l 340 276 z m 618 833 l 618 1111 l 340 1111 l 340 833 z m 340 833 l 340 1111 l 63 1111 l 63 833 z m 340 554 l 340 833 l 63 833 l 63 554 z m 897 554 l 897 833 l 618 833 l 618 554 z m 340 276 l 340 554 l 63 554 l 63 276 z m 340 -1 l 340 276 l 63 276 l 63 -1 z "},"Q":{"ha":1215,"x_min":0,"x_max":0,"o":"m 1146 0 l 1146 278 l 868 278 l 868 0 z m 1146 278 l 1146 557 l 868 557 l 868 278 z m 1146 557 l 1146 835 l 868 835 l 868 557 z m 868 835 l 868 1114 l 313 1114 l 313 835 z m 868 0 l 868 278 l 313 278 l 313 0 z m 313 278 l 313 557 l 35 557 l 35 278 z m 313 557 l 313 835 l 35 835 l 35 557 z "},"R":{"ha":976,"x_min":0,"x_max":0,"o":"m 918 0 l 918 278 l 639 278 l 639 0 z m 639 278 l 639 556 l 361 556 l 361 278 z m 639 835 l 639 1113 l 361 1113 l 361 835 z m 361 835 l 361 1113 l 83 1113 l 83 835 z m 361 556 l 361 835 l 83 835 l 83 556 z m 918 556 l 918 835 l 639 835 l 639 556 z m 361 278 l 361 556 l 83 556 l 83 278 z m 361 0 l 361 278 l 83 278 l 83 0 z "},"S":{"ha":1003,"x_min":0,"x_max":0,"o":"m 349 0 l 349 278 l 71 278 l 71 0 z m 626 0 l 626 278 l 349 278 l 349 0 z m 906 278 l 906 556 l 626 556 l 626 278 z m 349 556 l 349 835 l 71 835 l 71 556 z m 906 835 l 906 1113 l 626 1113 l 626 835 z m 626 835 l 626 1113 l 349 1113 l 349 835 z "},"T":{"ha":925,"x_min":0,"x_max":0,"o":"m 875 836 l 875 1114 l 596 1114 l 596 836 z m 318 836 l 318 1114 l 40 1114 l 40 836 z m 596 836 l 596 1114 l 318 1114 l 318 836 z m 596 557 l 596 836 l 318 836 l 318 557 z m 596 1 l 596 279 l 318 279 l 318 1 z m 596 279 l 596 557 l 318 557 l 318 279 z "},"U":{"ha":976,"x_min":0,"x_max":0,"o":"m 349 0 l 349 279 l 69 279 l 69 0 z m 906 557 l 906 836 l 626 836 l 626 557 z m 906 279 l 906 557 l 626 557 l 626 279 z m 349 557 l 349 836 l 69 836 l 69 557 z m 349 279 l 349 557 l 69 557 l 69 279 z m 906 836 l 906 1115 l 626 1115 l 626 836 z m 906 0 l 906 279 l 626 279 l 626 0 z m 626 0 l 626 279 l 349 279 l 349 0 z m 349 836 l 349 1115 l 69 1115 l 69 836 z "},"V":{"ha":1003,"x_min":0,"x_max":0,"o":"m 911 556 l 911 835 l 632 835 l 632 556 z m 911 278 l 911 556 l 632 556 l 632 278 z m 354 556 l 354 835 l 76 835 l 76 556 z m 354 278 l 354 556 l 76 556 l 76 278 z m 911 835 l 911 1113 l 632 1113 l 632 835 z m 632 0 l 632 278 l 354 278 l 354 0 z m 354 835 l 354 1113 l 76 1113 l 76 835 z "},"W":{"ha":1572,"x_min":0,"x_max":0,"o":"m 1471 836 l 1471 1115 l 1193 1115 l 1193 836 z m 1471 279 l 1471 557 l 1193 557 l 1193 279 z m 1471 557 l 1471 836 l 1193 836 l 1193 557 z m 357 836 l 357 1115 l 78 1115 l 78 836 z m 357 557 l 357 836 l 78 836 l 78 557 z m 357 279 l 357 557 l 78 557 l 78 279 z m 635 0 l 635 279 l 357 279 l 357 0 z m 1193 0 l 1193 279 l 914 279 l 914 0 z m 914 279 l 914 557 l 635 557 l 635 279 z "},"X":{"ha":1006,"x_min":0,"x_max":0,"o":"m 357 -1 l 357 278 l 78 278 l 78 -1 z m 914 278 l 914 556 l 635 556 l 635 278 z m 357 278 l 357 556 l 78 556 l 78 278 z m 914 835 l 914 1114 l 635 1114 l 635 835 z m 914 -1 l 914 278 l 635 278 l 635 -1 z m 635 556 l 635 835 l 357 835 l 357 556 z m 357 835 l 357 1114 l 78 1114 l 78 835 z "},"Y":{"ha":946,"x_min":0,"x_max":0,"o":"m 892 556 l 892 835 l 613 835 l 613 556 z m 335 556 l 335 835 l 56 835 l 56 556 z m 892 835 l 892 1114 l 613 1114 l 613 835 z m 335 835 l 335 1114 l 56 1114 l 56 835 z m 613 -1 l 613 278 l 335 278 l 335 -1 z m 613 278 l 613 556 l 335 556 l 335 278 z "},"Z":{"ha":996,"x_min":0,"x_max":0,"o":"m 901 -1 l 901 276 l 624 276 l 624 -1 z m 624 -1 l 624 276 l 344 276 l 344 -1 z m 344 -1 l 344 276 l 67 276 l 67 -1 z m 344 276 l 344 556 l 67 556 l 67 276 z m 901 833 l 901 1111 l 624 1111 l 624 833 z m 901 556 l 901 833 l 624 833 l 624 556 z m 344 833 l 344 1111 l 67 1111 l 67 833 z m 624 833 l 624 1111 l 344 1111 l 344 833 z "},"[":{"ha":621,"x_min":0,"x_max":0,"o":"m -3 836 l 271 836 l 271 1381 l -3 1381 z m -3 292 l 271 292 l 271 836 l -3 836 z m -3 -274 l 271 -274 l 271 292 l -3 292 z m 561 1381 l 271 1381 l 271 1108 l 561 1108 z m 271 0 l 271 -272 l 561 -272 l 561 1 z "},"\\":{"ha":1265,"x_min":0,"x_max":0,"o":"m 913 256 l 608 256 l 608 -28 l 913 -28 z m 1196 -28 l 913 -28 l 913 -332 l 1196 -332 z m 608 1110 l 322 1110 l 322 825 l 608 825 z m 322 1394 l 39 1394 l 39 1110 l 322 1110 z m 608 825 l 322 825 l 322 542 l 608 542 z m 913 542 l 608 542 l 608 256 l 913 256 z "},"]":{"ha":624,"x_min":0,"x_max":0,"o":"m 567 274 l 293 274 l 293 -1 l 567 -1 z m 567 821 l 293 821 l 293 274 l 567 274 z m 567 1113 l 293 1113 l 293 821 l 567 821 z m 1 -274 l 567 -274 l 567 -1 l 1 -1 z m 565 1113 l 565 1386 l 1 1386 l 1 1113 z "},"_":{"ha":1276,"x_min":0,"x_max":0,"o":"m 1203 0 l 53 0 l 53 -279 l 1203 -279 z "},"a":{"ha":983,"x_min":0,"x_max":0,"o":"m 894 278 l 894 558 l 615 558 l 615 278 z m 615 558 l 615 838 l 335 838 l 335 558 z m 335 278 l 335 558 l 56 558 l 56 278 z m 615 -1 l 615 278 l 335 278 l 335 -1 z m 894 -1 l 894 278 l 615 278 l 615 -1 z "},"b":{"ha":958,"x_min":0,"x_max":0,"o":"m 633 0 l 633 278 l 356 278 l 356 0 z m 633 556 l 633 835 l 356 835 l 356 556 z m 913 278 l 913 556 l 633 556 l 633 278 z m 356 835 l 356 1113 l 78 1113 l 78 835 z m 356 556 l 356 835 l 78 835 l 78 556 z m 356 278 l 356 556 l 78 556 l 78 278 z "},"c":{"ha":996,"x_min":0,"x_max":0,"o":"m 618 1 l 618 279 l 339 279 l 339 1 z m 896 1 l 896 279 l 618 279 l 618 1 z m 339 279 l 339 558 l 61 558 l 61 279 z m 618 558 l 618 836 l 339 836 l 339 558 z m 896 558 l 896 836 l 618 836 l 618 558 z "},"d":{"ha":976,"x_min":0,"x_max":0,"o":"m 626 1 l 626 279 l 350 279 l 350 1 z m 626 556 l 626 833 l 350 833 l 350 556 z m 350 279 l 350 556 l 72 556 l 72 279 z m 904 833 l 904 1111 l 626 1111 l 626 833 z m 904 556 l 904 833 l 626 833 l 626 556 z m 904 279 l 904 556 l 626 556 l 626 279 z "},"e":{"ha":921,"x_min":0,"x_max":0,"o":"m 601 557 l 601 835 l 322 835 l 322 557 z m 322 278 l 322 557 l 44 557 l 44 278 z m 601 0 l 601 278 l 322 278 l 322 0 z m 879 0 l 879 278 l 601 278 l 601 0 z "},"f":{"ha":697,"x_min":0,"x_max":0,"o":"m 632 279 l 632 556 l 356 556 l 356 279 z m 356 556 l 356 833 l 78 833 l 78 556 z m 632 833 l 632 1111 l 356 1111 l 356 833 z m 356 279 l 356 556 l 78 556 l 78 279 z m 356 1 l 356 279 l 78 279 l 78 1 z "},"g":{"ha":981,"x_min":0,"x_max":0,"o":"m 636 -560 l 636 -282 l 356 -282 l 356 -560 z m 636 -1 l 636 275 l 356 275 l 356 -1 z m 913 -1 l 913 275 l 636 275 l 636 -1 z m 356 275 l 356 554 l 78 554 l 78 275 z m 913 -282 l 913 -1 l 636 -1 l 636 -282 z m 913 275 l 913 554 l 636 554 l 636 275 z m 636 554 l 636 833 l 356 833 l 356 554 z "},"h":{"ha":976,"x_min":0,"x_max":0,"o":"m 350 835 l 350 1113 l 72 1113 l 72 835 z m 350 556 l 350 835 l 72 835 l 72 556 z m 628 556 l 628 835 l 350 835 l 350 556 z m 907 278 l 907 556 l 628 556 l 628 278 z m 907 0 l 907 278 l 628 278 l 628 0 z m 350 278 l 350 556 l 72 556 l 72 278 z m 350 0 l 350 278 l 72 278 l 72 0 z "},"i":{"ha":546,"x_min":0,"x_max":0,"o":"m 378 835 l 378 1113 l 100 1113 l 100 835 z m 417 278 l 417 556 l 139 556 l 139 278 z m 417 0 l 417 278 l 139 278 l 139 0 z "},"j":{"ha":661,"x_min":0,"x_max":0,"o":"m 283 -556 l 283 -278 l 1 -278 l 1 -556 z m 565 -278 l 565 0 l 283 0 l 283 -278 z m 565 835 l 565 1113 l 283 1113 l 283 835 z m 565 0 l 565 278 l 283 278 l 283 0 z m 565 278 l 565 556 l 283 556 l 283 278 z "},"k":{"ha":974,"x_min":0,"x_max":0,"o":"m 910 1 l 910 279 l 632 279 l 632 1 z m 910 556 l 910 833 l 632 833 l 632 556 z m 632 279 l 632 556 l 356 556 l 356 279 z m 356 556 l 356 833 l 78 833 l 78 556 z m 356 833 l 356 1110 l 78 1110 l 78 833 z m 356 1 l 356 279 l 78 279 l 78 1 z m 356 279 l 356 556 l 78 556 l 78 279 z "},"l":{"ha":401,"x_min":0,"x_max":0,"o":"m 351 836 l 351 1115 l 72 1115 l 72 836 z m 351 557 l 351 836 l 72 836 l 72 557 z m 351 279 l 351 557 l 72 557 l 72 279 z m 351 0 l 351 279 l 72 279 l 72 0 z "},"m":{"ha":1525,"x_min":0,"x_max":0,"o":"m 351 0 l 351 557 l 72 557 l 72 0 z m 1468 0 l 1468 557 l 1189 557 l 1189 0 z m 1189 557 l 1189 838 l 910 838 l 910 557 z m 910 276 l 910 278 l 631 278 l 631 276 z m 910 278 l 910 557 l 631 557 l 631 278 z m 631 557 l 631 838 l 72 838 l 72 557 z "},"n":{"ha":949,"x_min":0,"x_max":0,"o":"m 350 556 l 350 833 l 72 833 l 72 556 z m 350 1 l 350 279 l 72 279 l 72 1 z m 904 1 l 904 279 l 626 279 l 626 1 z m 904 279 l 904 556 l 626 556 l 626 279 z m 626 556 l 626 833 l 350 833 l 350 556 z m 350 279 l 350 556 l 72 556 l 72 279 z "},"o":{"ha":892,"x_min":0,"x_max":0,"o":"m 585 1 l 585 279 l 306 279 l 306 1 z m 863 279 l 863 558 l 585 558 l 585 279 z m 585 558 l 585 836 l 306 836 l 306 558 z m 306 279 l 306 558 l 28 558 l 28 279 z "},"p":{"ha":918,"x_min":0,"x_max":0,"o":"m 608 0 l 608 279 l 329 279 l 329 0 z m 329 -557 l 329 0 l 50 0 l 50 -557 z m 608 558 l 608 839 l 329 839 l 329 558 z m 888 279 l 888 558 l 608 558 l 608 279 z m 329 279 l 329 558 l 50 558 l 50 279 z m 329 0 l 329 279 l 50 279 l 50 0 z "},"q":{"ha":942,"x_min":0,"x_max":0,"o":"m 604 0 l 604 278 l 326 278 l 326 0 z m 883 -557 l 883 0 l 604 0 l 604 -557 z m 883 0 l 883 278 l 604 278 l 604 0 z m 883 278 l 883 557 l 604 557 l 604 278 z m 604 557 l 604 836 l 326 836 l 326 557 z m 326 278 l 326 557 l 47 557 l 47 278 z "},"r":{"ha":663,"x_min":0,"x_max":0,"o":"m 350 0 l 350 278 l 72 278 l 72 0 z m 350 278 l 350 557 l 72 557 l 72 278 z m 629 557 l 629 835 l 350 835 l 350 557 z "},"s":{"ha":907,"x_min":0,"x_max":0,"o":"m 311 0 l 311 278 l 33 278 l 33 0 z m 590 0 l 590 278 l 311 278 l 311 0 z m 590 557 l 590 835 l 311 835 l 311 557 z m 868 557 l 868 835 l 590 835 l 590 557 z "},"t":{"ha":681,"x_min":0,"x_max":0,"o":"m 613 0 l 613 279 l 335 279 l 335 0 z m 613 557 l 613 836 l 335 836 l 335 557 z m 335 557 l 335 836 l 56 836 l 56 557 z m 335 279 l 335 557 l 56 557 l 56 279 z m 335 836 l 335 1115 l 56 1115 l 56 836 z "},"u":{"ha":993,"x_min":0,"x_max":0,"o":"m 907 557 l 907 835 l 629 835 l 629 557 z m 907 278 l 907 557 l 629 557 l 629 278 z m 907 0 l 907 278 l 629 278 l 629 0 z m 629 0 l 629 278 l 350 278 l 350 0 z m 350 278 l 350 557 l 72 557 l 72 278 z m 350 557 l 350 835 l 72 835 l 72 557 z "},"v":{"ha":946,"x_min":0,"x_max":0,"o":"m 607 1 l 607 279 l 328 279 l 328 1 z m 885 279 l 885 558 l 607 558 l 607 279 z m 885 558 l 885 836 l 607 836 l 607 558 z m 328 279 l 328 558 l 50 558 l 50 279 z m 328 558 l 328 836 l 50 836 l 50 558 z "},"w":{"ha":1496,"x_min":0,"x_max":0,"o":"m 1446 278 l 1446 557 l 1168 557 l 1168 278 z m 1168 0 l 1168 278 l 890 278 l 890 0 z m 890 278 l 890 557 l 613 557 l 613 278 z m 613 0 l 613 278 l 333 278 l 333 0 z m 1446 557 l 1446 835 l 1168 835 l 1168 557 z m 890 557 l 890 557 l 613 557 l 613 557 z m 333 557 l 333 835 l 56 835 l 56 557 z m 333 278 l 333 557 l 56 557 l 56 278 z "},"x":{"ha":922,"x_min":0,"x_max":0,"o":"m 879 0 l 879 278 l 601 278 l 601 0 z m 879 557 l 879 835 l 601 835 l 601 557 z m 322 0 l 322 278 l 44 278 l 44 0 z m 601 278 l 601 557 l 322 557 l 322 278 z m 322 557 l 322 835 l 44 835 l 44 557 z "},"y":{"ha":976,"x_min":0,"x_max":0,"o":"m 886 279 l 886 558 l 607 558 l 607 279 z m 607 0 l 607 279 l 329 279 l 329 0 z m 607 -557 l 607 -278 l 329 -278 l 329 -557 z m 886 -278 l 886 0 l 607 0 l 607 -278 z m 886 0 l 886 279 l 607 279 l 607 0 z m 886 558 l 886 836 l 607 836 l 607 558 z m 329 558 l 329 836 l 50 836 l 50 558 z m 329 279 l 329 558 l 50 558 l 50 279 z "},"z":{"ha":869,"x_min":0,"x_max":0,"o":"m 851 1 l 851 279 l 574 279 l 574 1 z m 574 1 l 574 279 l 294 279 l 294 1 z m 574 558 l 574 836 l 294 836 l 294 558 z m 294 558 l 294 836 l 17 836 l 17 558 z "},"{":{"ha":624,"x_min":0,"x_max":0,"o":"m -3 836 l 271 836 l 271 1108 l -3 1108 z m -3 292 l 271 292 l 271 836 l -3 836 z m -3 1 l 271 1 l 271 292 l -3 292 z m 561 1381 l 271 1381 l 271 1108 l 561 1108 z m 271 1 l 271 -272 l 561 -272 l 561 1 z "},"|":{"ha":340,"x_min":0,"x_max":0,"o":"m 279 836 l 279 1390 l 0 1390 l 0 836 z m 279 557 l 279 836 l 0 836 l 0 557 z m 279 279 l 279 557 l 0 557 l 0 279 z m 279 -281 l 279 279 l 0 279 l 0 -281 z "},"}":{"ha":640,"x_min":0,"x_max":0,"o":"m 567 274 l 293 274 l 293 -1 l 567 -1 z m 567 821 l 293 821 l 293 274 l 567 274 z m 567 1113 l 293 1113 l 293 821 l 567 821 z m 1 -274 l 293 -274 l 293 -1 l 1 -1 z m 293 1113 l 293 1386 l 1 1386 l 1 1113 z "},"⁄":{"ha":665,"x_min":0,"x_max":0,"o":"m 1 281 l 299 281 l 299 560 l 1 560 z m 299 560 l 576 560 l 576 839 l 299 839 z m 576 1115 l 856 1115 l 856 1394 l 576 1394 z m 299 839 l 576 839 l 576 1115 l 299 1115 z m -278 -294 l 1 -294 l 1 1 l -278 1 z m 1 1 l 299 1 l 299 281 l 1 281 z "},"'":{"ha":274,"x_min":0,"x_max":0,"o":"m 254 1111 l -7 1111 l -7 832 l 254 832 z "},"«":{"ha":624,"x_min":0,"x_max":0,"o":"m 1 556 l 281 556 l 281 833 l 1 833 z m 281 833 l 560 833 l 560 1114 l 281 1114 z "},"‹":{"ha":1157,"x_min":0,"x_max":0,"o":""},"ﬁ":{"ha":875,"x_min":0,"x_max":0,"o":"m 632 279 l 632 556 l 356 556 l 356 279 z m 356 556 l 356 833 l 78 833 l 78 556 z m 632 833 l 632 1111 l 356 1111 l 356 833 z m 356 279 l 356 556 l 78 556 l 78 279 z m 356 1 l 356 279 l 78 279 l 78 1 z m 832 278 l 832 556 l 554 556 l 554 278 z m 832 0 l 832 278 l 554 278 l 554 0 z "},"ﬂ":{"ha":904,"x_min":0,"x_max":0,"o":"m 554 279 l 554 556 l 278 556 l 278 279 z m 278 556 l 278 833 l 0 833 l 0 556 z m 510 833 l 510 1111 l 278 1111 l 278 833 z m 278 279 l 278 556 l 0 556 l 0 279 z m 278 1 l 278 279 l 0 279 l 0 1 z m 833 832 l 833 1111 l 554 1111 l 554 832 z m 833 557 l 833 836 l 554 836 l 554 557 z m 833 279 l 833 557 l 554 557 l 554 279 z m 833 0 l 833 279 l 554 279 l 554 0 z "},"»":{"ha":624,"x_min":0,"x_max":0,"o":"m -1 1111 l -1 833 l 276 833 l 276 1111 z m 276 833 l 276 556 l 554 556 l 554 833 z "},"Æ":{"ha":1467,"x_min":0,"x_max":0,"o":"m 592 547 l 317 547 l 317 272 l 592 272 z m 592 1113 l 317 1113 l 317 818 l 592 818 z m 317 272 l 43 272 l 43 -1 l 317 -1 z m 317 547 l 43 547 l 43 272 l 317 272 z m 317 818 l 43 818 l 43 547 l 317 547 z m 1411 272 l 1138 272 l 1138 -1 l 1411 -1 z m 1138 272 l 863 272 l 863 -1 l 1138 -1 z m 863 272 l 592 272 l 592 -1 l 863 -1 z m 863 547 l 592 547 l 592 272 l 863 272 z m 863 818 l 592 818 l 592 547 l 863 547 z m 1138 818 l 863 818 l 863 547 l 1138 547 z m 1411 1113 l 1138 1113 l 1138 818 l 1411 818 z m 1138 1113 l 863 1113 l 863 818 l 1138 818 z m 863 1113 l 592 1113 l 592 818 l 863 818 z "},"Œ":{"ha":1518,"x_min":0,"x_max":0,"o":"m 635 1110 l 361 1110 l 361 817 l 635 817 z m 635 272 l 361 272 l 361 0 l 635 0 z m 361 544 l 69 544 l 69 272 l 361 272 z m 361 817 l 69 817 l 69 544 l 361 544 z m 1451 272 l 1179 272 l 1179 0 l 1451 0 z m 1179 272 l 906 272 l 906 0 l 1179 0 z m 906 272 l 635 272 l 635 0 l 906 0 z m 906 544 l 635 544 l 635 272 l 906 272 z m 906 817 l 635 817 l 635 544 l 906 544 z m 1179 817 l 906 817 l 906 544 l 1179 544 z m 1451 1110 l 1179 1110 l 1179 817 l 1451 817 z m 1179 1110 l 906 1110 l 906 817 l 1179 817 z m 906 1110 l 635 1110 l 635 817 l 906 817 z "},"æ":{"ha":1464,"x_min":0,"x_max":0,"o":"m 582 279 l 306 279 l 306 0 l 582 0 z m 882 279 l 582 279 l 582 0 l 882 0 z m 1438 279 l 1158 279 l 1158 0 l 1438 0 z m 1158 279 l 882 279 l 882 0 l 1158 0 z m 1158 835 l 882 835 l 882 556 l 1158 556 z m 882 556 l 582 556 l 582 279 l 882 279 z m 582 835 l 306 835 l 306 556 l 582 556 z m 306 556 l 26 556 l 26 279 l 306 279 z "},"œ":{"ha":1461,"x_min":0,"x_max":0,"o":"m 865 557 l 1163 557 l 1163 838 l 865 838 z m 585 278 l 865 278 l 865 557 l 585 557 z m 865 0 l 1163 0 l 1163 278 l 865 278 z m 1163 0 l 1442 0 l 1442 278 l 1163 278 z m 585 278 l 306 278 l 306 0 l 585 0 z m 585 838 l 306 838 l 306 557 l 585 557 z m 306 557 l 28 557 l 28 278 l 306 278 z "},"ß":{"ha":1157,"x_min":0,"x_max":0,"o":"m 463 -276 l 463 1 l 185 1 l 185 -276 z m 1015 1 l 1015 279 l 574 279 l 574 1 z m 1017 279 l 1017 556 l 739 556 l 739 279 z m 739 833 l 739 1111 l 463 1111 l 463 833 z m 463 833 l 463 1111 l 185 1111 l 185 833 z m 463 556 l 463 833 l 185 833 l 185 556 z m 739 556 l 739 833 l 463 833 l 463 556 z m 463 279 l 463 556 l 185 556 l 185 279 z m 463 1 l 463 279 l 185 279 l 185 1 z "},"Á":{"ha":949,"x_min":0,"x_max":0,"o":"m 629 278 l 629 556 l 351 556 l 351 278 z m 908 -1 l 908 278 l 629 278 l 629 -1 z m 908 278 l 908 556 l 629 556 l 629 278 z m 908 556 l 908 835 l 629 835 l 629 556 z m 629 835 l 629 1114 l 351 1114 l 351 835 z m 351 -1 l 351 278 l 72 278 l 72 -1 z m 351 278 l 351 556 l 72 556 l 72 278 z m 351 556 l 351 835 l 72 835 l 72 556 z "},"Â":{"ha":954,"x_min":0,"x_max":0,"o":"m 629 278 l 629 556 l 351 556 l 351 278 z m 908 -1 l 908 278 l 629 278 l 629 -1 z m 908 278 l 908 556 l 629 556 l 629 278 z m 908 556 l 908 835 l 629 835 l 629 556 z m 629 835 l 629 1114 l 351 1114 l 351 835 z m 351 -1 l 351 278 l 72 278 l 72 -1 z m 351 278 l 351 556 l 72 556 l 72 278 z m 351 556 l 351 835 l 72 835 l 72 556 z "},"Ä":{"ha":946,"x_min":0,"x_max":0,"o":"m 629 278 l 629 556 l 351 556 l 351 278 z m 908 -1 l 908 278 l 629 278 l 629 -1 z m 908 278 l 908 556 l 629 556 l 629 278 z m 908 556 l 908 835 l 629 835 l 629 556 z m 629 835 l 629 1114 l 351 1114 l 351 835 z m 351 -1 l 351 278 l 72 278 l 72 -1 z m 351 278 l 351 556 l 72 556 l 72 278 z m 351 556 l 351 835 l 72 835 l 72 556 z "},"À":{"ha":939,"x_min":0,"x_max":0,"o":"m 629 278 l 629 556 l 351 556 l 351 278 z m 908 -1 l 908 278 l 629 278 l 629 -1 z m 908 278 l 908 556 l 629 556 l 629 278 z m 908 556 l 908 835 l 629 835 l 629 556 z m 629 835 l 629 1114 l 351 1114 l 351 835 z m 351 -1 l 351 278 l 72 278 l 72 -1 z m 351 278 l 351 556 l 72 556 l 72 278 z m 351 556 l 351 835 l 72 835 l 72 556 z "},"Å":{"ha":926,"x_min":0,"x_max":0,"o":"m 629 278 l 629 556 l 351 556 l 351 278 z m 908 -1 l 908 278 l 629 278 l 629 -1 z m 908 278 l 908 556 l 629 556 l 629 278 z m 908 556 l 908 835 l 629 835 l 629 556 z m 629 835 l 629 1114 l 351 1114 l 351 835 z m 351 -1 l 351 278 l 72 278 l 72 -1 z m 351 278 l 351 556 l 72 556 l 72 278 z m 351 556 l 351 835 l 72 835 l 72 556 z "},"Ã":{"ha":929,"x_min":0,"x_max":0,"o":"m 629 278 l 629 556 l 351 556 l 351 278 z m 908 -1 l 908 278 l 629 278 l 629 -1 z m 908 278 l 908 556 l 629 556 l 629 278 z m 908 556 l 908 835 l 629 835 l 629 556 z m 629 835 l 629 1114 l 351 1114 l 351 835 z m 351 -1 l 351 278 l 72 278 l 72 -1 z m 351 278 l 351 556 l 72 556 l 72 278 z m 351 556 l 351 835 l 72 835 l 72 556 z "},"Ç":{"ha":910,"x_min":0,"x_max":0,"o":"m 617 835 l 617 1113 l 339 1113 l 339 835 z m 896 835 l 896 1113 l 617 1113 l 617 835 z m 896 0 l 896 278 l 617 278 l 617 0 z m 617 0 l 617 278 l 339 278 l 339 0 z m 339 278 l 339 556 l 61 556 l 61 278 z m 339 556 l 339 835 l 61 835 l 61 556 z "},"É":{"ha":932,"x_min":0,"x_max":0,"o":"m 917 0 l 917 278 l 638 278 l 638 0 z m 638 0 l 638 278 l 360 278 l 360 0 z m 360 0 l 360 278 l 82 278 l 82 0 z m 360 278 l 360 556 l 82 556 l 82 278 z m 360 556 l 360 835 l 82 835 l 82 556 z m 638 556 l 638 835 l 360 835 l 360 556 z m 917 835 l 917 1113 l 638 1113 l 638 835 z m 638 835 l 638 1113 l 360 1113 l 360 835 z m 360 835 l 360 1113 l 82 1113 l 82 835 z "},"Ê":{"ha":919,"x_min":0,"x_max":0,"o":"m 917 0 l 917 278 l 638 278 l 638 0 z m 638 0 l 638 278 l 360 278 l 360 0 z m 360 0 l 360 278 l 82 278 l 82 0 z m 360 278 l 360 556 l 82 556 l 82 278 z m 360 556 l 360 835 l 82 835 l 82 556 z m 638 556 l 638 835 l 360 835 l 360 556 z m 917 835 l 917 1113 l 638 1113 l 638 835 z m 638 835 l 638 1113 l 360 1113 l 360 835 z m 360 835 l 360 1113 l 82 1113 l 82 835 z "},"Ë":{"ha":910,"x_min":0,"x_max":0,"o":"m 917 0 l 917 278 l 638 278 l 638 0 z m 638 0 l 638 278 l 360 278 l 360 0 z m 360 0 l 360 278 l 82 278 l 82 0 z m 360 278 l 360 556 l 82 556 l 82 278 z m 360 556 l 360 835 l 82 835 l 82 556 z m 638 556 l 638 835 l 360 835 l 360 556 z m 917 835 l 917 1113 l 638 1113 l 638 835 z m 638 835 l 638 1113 l 360 1113 l 360 835 z m 360 835 l 360 1113 l 82 1113 l 82 835 z "},"È":{"ha":900,"x_min":0,"x_max":0,"o":"m 917 0 l 917 278 l 638 278 l 638 0 z m 638 0 l 638 278 l 360 278 l 360 0 z m 360 0 l 360 278 l 82 278 l 82 0 z m 360 278 l 360 556 l 82 556 l 82 278 z m 360 556 l 360 835 l 82 835 l 82 556 z m 638 556 l 638 835 l 360 835 l 360 556 z m 917 835 l 917 1113 l 638 1113 l 638 835 z m 638 835 l 638 1113 l 360 1113 l 360 835 z m 360 835 l 360 1113 l 82 1113 l 82 835 z "},"Í":{"ha":424,"x_min":0,"x_max":0,"o":"m 382 0 l 382 278 l 104 278 l 104 0 z m 382 278 l 382 556 l 104 556 l 104 278 z m 382 556 l 382 835 l 104 835 l 104 556 z m 382 835 l 382 1113 l 104 1113 l 104 835 z "},"Î":{"ha":414,"x_min":0,"x_max":0,"o":"m 382 0 l 382 278 l 104 278 l 104 0 z m 382 278 l 382 556 l 104 556 l 104 278 z m 382 556 l 382 835 l 104 835 l 104 556 z m 382 835 l 382 1113 l 104 1113 l 104 835 z "},"Ï":{"ha":414,"x_min":0,"x_max":0,"o":"m 382 0 l 382 278 l 104 278 l 104 0 z m 382 278 l 382 556 l 104 556 l 104 278 z m 382 556 l 382 835 l 104 835 l 104 556 z m 382 835 l 382 1113 l 104 1113 l 104 835 z "},"Ì":{"ha":411,"x_min":0,"x_max":0,"o":"m 382 0 l 382 278 l 104 278 l 104 0 z m 382 278 l 382 556 l 104 556 l 104 278 z m 382 556 l 382 835 l 104 835 l 104 556 z m 382 835 l 382 1113 l 104 1113 l 104 835 z "},"Ñ":{"ha":1274,"x_min":0,"x_max":0,"o":"m 1203 0 l 1203 278 l 925 278 l 925 0 z m 925 278 l 925 556 l 646 556 l 646 278 z m 1203 278 l 1203 556 l 925 556 l 925 278 z m 1203 556 l 1203 835 l 925 835 l 925 556 z m 1203 835 l 1203 1113 l 925 1113 l 925 835 z m 368 0 l 368 278 l 90 278 l 90 0 z m 368 278 l 368 556 l 90 556 l 90 278 z m 646 556 l 646 835 l 368 835 l 368 556 z m 368 556 l 368 835 l 90 835 l 90 556 z m 368 835 l 368 1113 l 90 1113 l 90 835 z "},"Ó":{"ha":954,"x_min":0,"x_max":0,"o":"m 906 -1 l 906 276 l 626 276 l 626 -1 z m 906 833 l 906 1111 l 626 1111 l 626 833 z m 1183 276 l 1183 556 l 906 556 l 906 276 z m 1183 556 l 1183 833 l 906 833 l 906 556 z m 626 833 l 626 1111 l 347 1111 l 347 833 z m 626 -1 l 626 276 l 347 276 l 347 -1 z m 347 276 l 347 556 l 69 556 l 69 276 z m 347 556 l 347 833 l 69 833 l 69 556 z "},"Ô":{"ha":954,"x_min":0,"x_max":0,"o":"m 906 -1 l 906 276 l 626 276 l 626 -1 z m 906 833 l 906 1111 l 626 1111 l 626 833 z m 1183 276 l 1183 556 l 906 556 l 906 276 z m 1183 556 l 1183 833 l 906 833 l 906 556 z m 626 833 l 626 1111 l 347 1111 l 347 833 z m 626 -1 l 626 276 l 347 276 l 347 -1 z m 347 276 l 347 556 l 69 556 l 69 276 z m 347 556 l 347 833 l 69 833 l 69 556 z "},"Ö":{"ha":936,"x_min":0,"x_max":0,"o":"m 906 -1 l 906 276 l 626 276 l 626 -1 z m 906 833 l 906 1111 l 626 1111 l 626 833 z m 1183 276 l 1183 556 l 906 556 l 906 276 z m 1183 556 l 1183 833 l 906 833 l 906 556 z m 626 833 l 626 1111 l 347 1111 l 347 833 z m 626 -1 l 626 276 l 347 276 l 347 -1 z m 347 276 l 347 556 l 69 556 l 69 276 z m 347 556 l 347 833 l 69 833 l 69 556 z "},"Ò":{"ha":954,"x_min":0,"x_max":0,"o":"m 906 -1 l 906 276 l 626 276 l 626 -1 z m 906 833 l 906 1111 l 626 1111 l 626 833 z m 1183 276 l 1183 556 l 906 556 l 906 276 z m 1183 556 l 1183 833 l 906 833 l 906 556 z m 626 833 l 626 1111 l 347 1111 l 347 833 z m 626 -1 l 626 276 l 347 276 l 347 -1 z m 347 276 l 347 556 l 69 556 l 69 276 z m 347 556 l 347 833 l 69 833 l 69 556 z "},"Õ":{"ha":951,"x_min":0,"x_max":0,"o":"m 906 -1 l 906 276 l 626 276 l 626 -1 z m 906 833 l 906 1111 l 626 1111 l 626 833 z m 1183 276 l 1183 556 l 906 556 l 906 276 z m 1183 556 l 1183 833 l 906 833 l 906 556 z m 626 833 l 626 1111 l 347 1111 l 347 833 z m 626 -1 l 626 276 l 347 276 l 347 -1 z m 347 276 l 347 556 l 69 556 l 69 276 z m 347 556 l 347 833 l 69 833 l 69 556 z "},"Ú":{"ha":990,"x_min":0,"x_max":0,"o":"m 349 0 l 349 279 l 69 279 l 69 0 z m 906 557 l 906 836 l 626 836 l 626 557 z m 906 279 l 906 557 l 626 557 l 626 279 z m 349 557 l 349 836 l 69 836 l 69 557 z m 349 279 l 349 557 l 69 557 l 69 279 z m 906 836 l 906 1115 l 626 1115 l 626 836 z m 906 0 l 906 279 l 626 279 l 626 0 z m 626 0 l 626 279 l 349 279 l 349 0 z m 349 836 l 349 1115 l 69 1115 l 69 836 z "},"Û":{"ha":986,"x_min":0,"x_max":0,"o":"m 349 0 l 349 279 l 69 279 l 69 0 z m 906 557 l 906 836 l 626 836 l 626 557 z m 906 279 l 906 557 l 626 557 l 626 279 z m 349 557 l 349 836 l 69 836 l 69 557 z m 349 279 l 349 557 l 69 557 l 69 279 z m 906 836 l 906 1115 l 626 1115 l 626 836 z m 906 0 l 906 279 l 626 279 l 626 0 z m 626 0 l 626 279 l 349 279 l 349 0 z m 349 836 l 349 1115 l 69 1115 l 69 836 z "},"Ü":{"ha":996,"x_min":0,"x_max":0,"o":"m 349 0 l 349 279 l 69 279 l 69 0 z m 906 557 l 906 836 l 626 836 l 626 557 z m 906 279 l 906 557 l 626 557 l 626 279 z m 349 557 l 349 836 l 69 836 l 69 557 z m 349 279 l 349 557 l 69 557 l 69 279 z m 906 836 l 906 1115 l 626 1115 l 626 836 z m 906 0 l 906 279 l 626 279 l 626 0 z m 626 0 l 626 279 l 349 279 l 349 0 z m 349 836 l 349 1115 l 69 1115 l 69 836 z "},"Ù":{"ha":986,"x_min":0,"x_max":0,"o":"m 349 0 l 349 279 l 69 279 l 69 0 z m 906 557 l 906 836 l 626 836 l 626 557 z m 906 279 l 906 557 l 626 557 l 626 279 z m 349 557 l 349 836 l 69 836 l 69 557 z m 349 279 l 349 557 l 69 557 l 69 279 z m 906 836 l 906 1115 l 626 1115 l 626 836 z m 906 0 l 906 279 l 626 279 l 626 0 z m 626 0 l 626 279 l 349 279 l 349 0 z m 349 836 l 349 1115 l 69 1115 l 69 836 z "},"á":{"ha":949,"x_min":0,"x_max":0,"o":"m 894 278 l 894 558 l 615 558 l 615 278 z m 615 558 l 615 838 l 335 838 l 335 558 z m 335 278 l 335 558 l 56 558 l 56 278 z m 615 -1 l 615 278 l 335 278 l 335 -1 z m 894 -1 l 894 278 l 615 278 l 615 -1 z "},"â":{"ha":954,"x_min":0,"x_max":0,"o":"m 894 278 l 894 558 l 615 558 l 615 278 z m 615 558 l 615 838 l 335 838 l 335 558 z m 335 278 l 335 558 l 56 558 l 56 278 z m 615 -1 l 615 278 l 335 278 l 335 -1 z m 894 -1 l 894 278 l 615 278 l 615 -1 z "},"ä":{"ha":954,"x_min":0,"x_max":0,"o":"m 894 278 l 894 558 l 615 558 l 615 278 z m 615 558 l 615 838 l 335 838 l 335 558 z m 335 278 l 335 558 l 56 558 l 56 278 z m 615 -1 l 615 278 l 335 278 l 335 -1 z m 894 -1 l 894 278 l 615 278 l 615 -1 z "},"à":{"ha":946,"x_min":0,"x_max":0,"o":"m 894 278 l 894 558 l 615 558 l 615 278 z m 615 558 l 615 838 l 335 838 l 335 558 z m 335 278 l 335 558 l 56 558 l 56 278 z m 615 -1 l 615 278 l 335 278 l 335 -1 z m 894 -1 l 894 278 l 615 278 l 615 -1 z "},"å":{"ha":951,"x_min":0,"x_max":0,"o":"m 894 278 l 894 558 l 615 558 l 615 278 z m 615 558 l 615 838 l 335 838 l 335 558 z m 335 278 l 335 558 l 56 558 l 56 278 z m 615 -1 l 615 278 l 335 278 l 335 -1 z m 894 -1 l 894 278 l 615 278 l 615 -1 z "},"ã":{"ha":951,"x_min":0,"x_max":0,"o":"m 894 278 l 894 558 l 615 558 l 615 278 z m 615 558 l 615 838 l 335 838 l 335 558 z m 335 278 l 335 558 l 56 558 l 56 278 z m 615 -1 l 615 278 l 335 278 l 335 -1 z m 894 -1 l 894 278 l 615 278 l 615 -1 z "},"ç":{"ha":922,"x_min":0,"x_max":0,"o":"m 618 1 l 618 279 l 339 279 l 339 1 z m 896 1 l 896 279 l 618 279 l 618 1 z m 339 279 l 339 558 l 61 558 l 61 279 z m 618 558 l 618 836 l 339 836 l 339 558 z m 896 558 l 896 836 l 618 836 l 618 558 z "},"é":{"ha":888,"x_min":0,"x_max":0,"o":"m 601 557 l 601 835 l 322 835 l 322 557 z m 322 278 l 322 557 l 44 557 l 44 278 z m 601 0 l 601 278 l 322 278 l 322 0 z m 879 0 l 879 278 l 601 278 l 601 0 z "},"ê":{"ha":882,"x_min":0,"x_max":0,"o":"m 601 557 l 601 835 l 322 835 l 322 557 z m 322 278 l 322 557 l 44 557 l 44 278 z m 601 0 l 601 278 l 322 278 l 322 0 z m 879 0 l 879 278 l 601 278 l 601 0 z "},"ë":{"ha":882,"x_min":0,"x_max":0,"o":"m 601 557 l 601 835 l 322 835 l 322 557 z m 322 278 l 322 557 l 44 557 l 44 278 z m 601 0 l 601 278 l 322 278 l 322 0 z m 879 0 l 879 278 l 601 278 l 601 0 z "},"è":{"ha":882,"x_min":0,"x_max":0,"o":"m 601 557 l 601 835 l 322 835 l 322 557 z m 322 278 l 322 557 l 44 557 l 44 278 z m 601 0 l 601 278 l 322 278 l 322 0 z m 879 0 l 879 278 l 601 278 l 601 0 z "},"í":{"ha":490,"x_min":0,"x_max":0,"o":"m 278 835 l 278 1113 l 0 1113 l 0 835 z m 317 278 l 317 556 l 39 556 l 39 278 z m 317 0 l 317 278 l 39 278 l 39 0 z "},"î":{"ha":490,"x_min":0,"x_max":0,"o":"m 278 835 l 278 1113 l 0 1113 l 0 835 z m 317 278 l 317 556 l 39 556 l 39 278 z m 317 0 l 317 278 l 39 278 l 39 0 z "},"ï":{"ha":490,"x_min":0,"x_max":0,"o":"m 278 835 l 278 1113 l 0 1113 l 0 835 z m 317 278 l 317 556 l 39 556 l 39 278 z m 317 0 l 317 278 l 39 278 l 39 0 z "},"ì":{"ha":490,"x_min":0,"x_max":0,"o":"m 278 835 l 278 1113 l 0 1113 l 0 835 z m 317 278 l 317 556 l 39 556 l 39 278 z m 317 0 l 317 278 l 39 278 l 39 0 z "},"ñ":{"ha":946,"x_min":0,"x_max":0,"o":"m 350 556 l 350 833 l 72 833 l 72 556 z m 350 1 l 350 279 l 72 279 l 72 1 z m 904 1 l 904 279 l 626 279 l 626 1 z m 904 279 l 904 556 l 626 556 l 626 279 z m 626 556 l 626 833 l 350 833 l 350 556 z m 350 279 l 350 556 l 72 556 l 72 279 z "},"ó":{"ha":932,"x_min":0,"x_max":0,"o":"m 585 1 l 585 279 l 306 279 l 306 1 z m 863 279 l 863 558 l 585 558 l 585 279 z m 585 558 l 585 836 l 306 836 l 306 558 z m 306 279 l 306 558 l 28 558 l 28 279 z "},"ô":{"ha":910,"x_min":0,"x_max":0,"o":"m 585 1 l 585 279 l 306 279 l 306 1 z m 863 279 l 863 558 l 585 558 l 585 279 z m 585 558 l 585 836 l 306 836 l 306 558 z m 306 279 l 306 558 l 28 558 l 28 279 z "},"ö":{"ha":914,"x_min":0,"x_max":0,"o":"m 585 1 l 585 279 l 306 279 l 306 1 z m 863 279 l 863 558 l 585 558 l 585 279 z m 585 558 l 585 836 l 306 836 l 306 558 z m 306 279 l 306 558 l 28 558 l 28 279 z "},"ò":{"ha":932,"x_min":0,"x_max":0,"o":"m 585 1 l 585 279 l 306 279 l 306 1 z m 863 279 l 863 558 l 585 558 l 585 279 z m 585 558 l 585 836 l 306 836 l 306 558 z m 306 279 l 306 558 l 28 558 l 28 279 z "},"õ":{"ha":922,"x_min":0,"x_max":0,"o":"m 585 1 l 585 279 l 306 279 l 306 1 z m 863 279 l 863 558 l 585 558 l 585 279 z m 585 558 l 585 836 l 306 836 l 306 558 z m 306 279 l 306 558 l 28 558 l 28 279 z "},"ú":{"ha":986,"x_min":0,"x_max":0,"o":"m 907 557 l 907 835 l 629 835 l 629 557 z m 907 278 l 907 557 l 629 557 l 629 278 z m 907 0 l 907 278 l 629 278 l 629 0 z m 629 0 l 629 278 l 350 278 l 350 0 z m 350 278 l 350 557 l 72 557 l 72 278 z m 350 557 l 350 835 l 72 835 l 72 557 z "},"û":{"ha":974,"x_min":0,"x_max":0,"o":"m 907 557 l 907 835 l 629 835 l 629 557 z m 907 278 l 907 557 l 629 557 l 629 278 z m 907 0 l 907 278 l 629 278 l 629 0 z m 629 0 l 629 278 l 350 278 l 350 0 z m 350 278 l 350 557 l 72 557 l 72 278 z m 350 557 l 350 835 l 72 835 l 72 557 z "},"ü":{"ha":974,"x_min":0,"x_max":0,"o":"m 907 557 l 907 835 l 629 835 l 629 557 z m 907 278 l 907 557 l 629 557 l 629 278 z m 907 0 l 907 278 l 629 278 l 629 0 z m 629 0 l 629 278 l 350 278 l 350 0 z m 350 278 l 350 557 l 72 557 l 72 278 z m 350 557 l 350 835 l 72 835 l 72 557 z "},"ù":{"ha":974,"x_min":0,"x_max":0,"o":"m 907 557 l 907 835 l 629 835 l 629 557 z m 907 278 l 907 557 l 629 557 l 629 278 z m 907 0 l 907 278 l 629 278 l 629 0 z m 629 0 l 629 278 l 350 278 l 350 0 z m 350 278 l 350 557 l 72 557 l 72 278 z m 350 557 l 350 835 l 72 835 l 72 557 z "}}}
